<?xml version="1.0" encoding="utf-8"?>
<!-- Generator: Adobe Illustrator 26.0.1, SVG Export Plug-In . SVG Version: 6.00 Build 0)  -->
<!DOCTYPE svg PUBLIC "-//W3C//DTD SVG 1.1//EN" "http://www.w3.org/Graphics/SVG/1.1/DTD/svg11.dtd" [
	<!ENTITY ns_extend "http://ns.adobe.com/Extensibility/1.0/">
	<!ENTITY ns_ai "http://ns.adobe.com/AdobeIllustrator/10.0/">
	<!ENTITY ns_graphs "http://ns.adobe.com/Graphs/1.0/">
	<!ENTITY ns_vars "http://ns.adobe.com/Variables/1.0/">
	<!ENTITY ns_imrep "http://ns.adobe.com/ImageReplacement/1.0/">
	<!ENTITY ns_sfw "http://ns.adobe.com/SaveForWeb/1.0/">
	<!ENTITY ns_custom "http://ns.adobe.com/GenericCustomNamespace/1.0/">
	<!ENTITY ns_adobe_xpath "http://ns.adobe.com/XPath/1.0/">
]>
<svg version="1.1" id="Layer_1" xmlns:x="&ns_extend;" xmlns:i="&ns_ai;" xmlns:graph="&ns_graphs;"
	 xmlns="http://www.w3.org/2000/svg" xmlns:xlink="http://www.w3.org/1999/xlink" x="0px" y="0px" viewBox="0 0 1082.3 559.5"
	 style="enable-background:new 0 0 1082.3 559.5;" xml:space="preserve">
<style type="text/css">
	.st0{fill:#1B3054;}
	.st1{fill:#00943F;}
	.st2{font-family:'HelveticaNeueLTW1G-Bd';}
	.st3{font-size:60.9956px;}
</style>
<metadata>
	<sfw  xmlns="&ns_sfw;">
		<slices></slices>
		<sliceSourceBounds  bottomLeftOrigin="true" height="16383" width="16383" x="-7893" y="-8613"></sliceSourceBounds>
	</sfw>
</metadata>
<path class="st0" d="M237.6,400.1l-111.3-0.1l99.6-40.5c17.4-6.9,31.1-17.6,40.5-31.8c9.1-13.4,13.7-27.7,13.7-42.7
	c0-19.6-6.8-36.2-20.5-49.3c-13.7-12.7-30.5-18.3-50.1-18.3l-139.2-0.2c-22.8,0-41.4,18.9-41.4,42.2c0,23,19.1,41.6,42.5,41.6
	l102.5,0.2l-90.4,36.4C47.8,351.9,29,377.2,29,410.9c0,19.4,6.4,36.3,19.1,50.4C61.4,476.2,78.6,484,97.9,484l140.8,0
	c22.8,0,41.4-18.9,41.4-42.2C280,418.8,261,400.1,237.6,400.1z"/>
<path class="st1" d="M452.6,253.8L452.6,253.8c-0.6-0.5-1.8-0.1-2.6,0.3l-18.4,18.4c-3.9,3.9-9.8,3.8-13.5,0
	c-3.9-3.9-4-10.1-0.2-13.8l18.4-18.4c0.6-0.6,1.1-1.7,0.5-2.3c-0.1-0.1-0.1-0.1-0.2-0.2c-15.8-12.7-35.3-19.2-55-19.4
	c2.1-5.1,3.9-11.2,3.4-16.8c-1.1-13.4-5.6-33.9,4-46.5c0,0,4.7-13.3,46.6-30.9c0,0-46.5,29.4-40.3,47.4c0,0,52.4-3.7,75.1-73.6
	c0,0-101.6-1-97,75.3c0,0-19-40.9-92.4-41.7c0,0,17.9,61.4,74.1,54.7c0,0,10.6-11.2-41.2-32.2c0,0,70.7,5.1,57.8,54.2
	c-0.8,3-2.7,7.2-4.8,11.1c-15.5,2.3-30.7,8.4-43.9,18.6c-0.7,0.5-0.6,1.6,0,2.3l18.4,18.4c3.9,3.9,4.3,10.3,0.5,14
	c-3.9,3.9-10.5,3.6-14.2-0.2l-18.4-18.4c-0.6-0.6-1.5-0.8-2.1-0.2c-25.8,32.3-26.3,79.8,0,113.8c0.5,0.7,1.4,0.3,2.1-0.2l18.4-18.4
	l0.2-0.2c3.9-3.9,10.3-3.8,14,0c3.9,3.9,3.3,10.3-0.5,14l-18.4,18.4c-0.6,0.6-0.6,1.7,0,2.3c9.9,7.9,21.2,13.4,33.1,16.5
	c-7.6,14.3-13.1,24.6-13.1,24.6c-10,19.3-2.8,42.9,16.1,52.7c19.1,9.9,42.6,2.8,52.4-16c0,0,63.8-113.4,63.8-144.7
	C475.2,290.9,466.9,269.5,452.6,253.8z M402.5,333.6c-12.6,12.6-32.9,12.6-45.5,0c-12.6-12.6-12.6-32.9,0-45.5
	c12.6-12.6,32.9-12.6,45.5,0C415.1,300.6,415.1,321,402.5,333.6z"/>
<path class="st1" d="M783.5,400.1l-111.3-0.1l99.6-40.5c17.4-6.9,31.1-17.6,40.5-31.8c9.1-13.4,13.7-27.7,13.7-42.7
	c0-19.6-6.8-36.2-20.5-49.3c-13.7-12.7-30.5-18.3-50.1-18.3l-139.2-0.2c-22.8,0-41.4,18.9-41.4,42.2c0,23,19.1,41.6,42.5,41.6
	l102.5,0.2l-90.4,36.4c-35.7,14.2-54.6,39.5-54.6,73.2c0,19.4,6.4,36.3,19.1,50.4c13.4,14.8,30.6,22.7,49.8,22.7l140.8,0
	c22.8,0,41.4-18.9,41.4-42.2C826,418.8,806.9,400.1,783.5,400.1z"/>
<path class="st1" d="M998.5,253.8L998.5,253.8c-0.6-0.5-1.8-0.1-2.6,0.3l-18.4,18.4c-3.9,3.9-9.8,3.8-13.5,0
	c-3.9-3.9-4-10.1-0.2-13.8l18.4-18.4c0.6-0.6,1.1-1.7,0.5-2.3c-0.1-0.1-0.1-0.1-0.2-0.2c-15.8-12.7-35.3-19.2-55-19.4
	c2.1-5.1,3.9-11.2,3.4-16.8c-1.1-13.4-5.6-33.9,4-46.5c0,0,4.7-13.3,46.6-30.9c0,0-46.5,29.4-40.3,47.4c0,0,52.4-3.7,75.1-73.6
	c0,0-101.6-1-97,75.3c0,0-19-40.9-92.4-41.7c0,0,17.9,61.4,74.1,54.7c0,0,10.6-11.2-41.2-32.2c0,0,70.7,5.1,57.8,54.2
	c-0.8,3-2.7,7.2-4.8,11.1c-15.5,2.3-30.7,8.4-43.9,18.6c-0.7,0.5-0.6,1.6,0,2.3l18.4,18.4c3.9,3.9,4.3,10.3,0.5,14
	c-3.9,3.9-10.5,3.6-14.2-0.2L855,254.1c-0.6-0.6-1.5-0.8-2.1-0.2c-25.8,32.3-26.3,79.8,0,113.8c0.5,0.7,1.4,0.3,2.1-0.2l18.4-18.4
	l0.2-0.2c3.9-3.9,10.3-3.8,14,0c3.9,3.9,3.3,10.3-0.5,14l-18.4,18.4c-0.6,0.6-0.6,1.7,0,2.3c9.9,7.9,21.2,13.4,33.1,16.5
	c-7.6,14.3-13.1,24.6-13.1,24.6c-10,19.3-2.8,42.9,16.1,52.7c19.1,9.9,42.6,2.8,52.4-16c0,0,63.8-113.4,63.8-144.7
	C1021.1,290.9,1012.8,269.5,998.5,253.8z M948.4,333.6c-12.6,12.6-32.9,12.6-45.5,0c-12.6-12.6-12.6-32.9,0-45.5
	c12.6-12.6,32.9-12.6,45.5,0C961,300.6,961,321,948.4,333.6z"/>
<text transform="matrix(1 0 0 1 495.6771 366.1959)" class="st0 st2 st3">By</text>
</svg>
