<?xml version="1.0" encoding="utf-8"?>
<!-- Generator: Adobe Illustrator 25.2.2, SVG Export Plug-In . SVG Version: 6.00 Build 0)  -->
<!DOCTYPE svg PUBLIC "-//W3C//DTD SVG 1.1//EN" "http://www.w3.org/Graphics/SVG/1.1/DTD/svg11.dtd" [
	<!ENTITY ns_extend "http://ns.adobe.com/Extensibility/1.0/">
	<!ENTITY ns_ai "http://ns.adobe.com/AdobeIllustrator/10.0/">
	<!ENTITY ns_graphs "http://ns.adobe.com/Graphs/1.0/">
	<!ENTITY ns_vars "http://ns.adobe.com/Variables/1.0/">
	<!ENTITY ns_imrep "http://ns.adobe.com/ImageReplacement/1.0/">
	<!ENTITY ns_sfw "http://ns.adobe.com/SaveForWeb/1.0/">
	<!ENTITY ns_custom "http://ns.adobe.com/GenericCustomNamespace/1.0/">
	<!ENTITY ns_adobe_xpath "http://ns.adobe.com/XPath/1.0/">
]>
<svg version="1.1" id="Layer_1" xmlns:x="&ns_extend;" xmlns:i="&ns_ai;" xmlns:graph="&ns_graphs;"
	 xmlns="http://www.w3.org/2000/svg" xmlns:xlink="http://www.w3.org/1999/xlink" x="0px" y="0px" viewBox="0 0 164.8 139.7"
	 style="enable-background:new 0 0 164.8 139.7;" xml:space="preserve">
<style type="text/css">
	.st0{fill:#DD052B;}
	.st1{fill:#002D59;}
	.st2{fill-rule:evenodd;clip-rule:evenodd;fill:#002D59;}
</style>
<metadata>
	<sfw  xmlns="&ns_sfw;">
		<slices></slices>
		<sliceSourceBounds  bottomLeftOrigin="true" height="107.3" width="130.9" x="16.4" y="15.6"></sliceSourceBounds>
	</sfw>
</metadata>
<g>
	<path class="st0" d="M147,111.5H16.7c-0.1,0-0.2,0.1-0.2,0.2c0,0.1,0.1,0.2,0.2,0.2H147c0.1,0,0.2-0.1,0.2-0.2
		C147.3,111.6,147.2,111.5,147,111.5"/>
	<path class="st0" d="M73,93.5h-6.8c-0.3,0-0.4-0.2-0.4-0.4c0-0.1,0.1-0.4,0.5-0.4h9.3c1.5,0,2.6-1.2,2.6-2.6c0-1.4-1.2-2.6-2.6-2.6
		h-9.5c-3,0-5.5,2.4-5.5,5.5c0,3,2.4,5.3,5.5,5.3h6.1c0.2,0,0.4,0.1,0.4,0.3c0,0.2-0.2,0.3-0.4,0.3h-9c-1,0-1.9,0.6-2.3,1.5
		c-0.4-1-1.4-1.8-2.5-1.8h-3.2v-1h2.7c1.1,0,2-0.9,2-2c0-1.1-0.9-2-2-2h-2.6v-1l3.3,0c1.4,0,2.6-1.1,2.6-2.6c0-1.4-1.1-2.6-2.5-2.6
		h-6c-1.5,0-2.6,1.2-2.6,2.6v9.5L44.8,89c-0.5-0.9-1.5-1.5-2.5-1.5c-0.9,0-1.7,0.5-2.2,1.3l-5.5,12.1c0,0.2-0.1,0.4-0.1,0.6
		c0,1.4,1.2,2.6,2.6,2.6c0.7,0,1.4-0.3,1.9-0.8c0.4-0.4,0.7-1,0.7-1.6h5.4c0,0.6,0.3,1.2,0.7,1.6c0.5,0.5,1.1,0.7,1.8,0.7h10.8
		c1,0,1.9-0.6,2.3-1.6h0c0.4,1,1.3,1.7,2.5,1.7H73c3,0,5.3-2.4,5.3-5.4C78.2,95.7,76,93.5,73,93.5 M43.3,97.8l-1.7,0l0.8-2
		L43.3,97.8z"/>
	<path class="st1" d="M129.7,98.9h-3.2v-8.8c0-1.4-1.2-2.5-2.6-2.5c-1.4,0-2.6,1.1-2.6,2.5l0,8.7l-0.6,0l-4.7-9.8
		c-0.5-0.8-1.4-1.4-2.3-1.4c-1,0-1.8,0.5-2.3,1.4l-5.4,11.9c-0.3-1.1-1.2-1.9-2.4-1.9l-3.3,0v-1h2.7c1.1,0,2-0.9,2-2
		c0-1.1-0.9-2-2-2h-2.7v-1l3.1,0c1.5,0,2.7-1.2,2.7-2.6c0-1.5-1.1-2.6-2.6-2.6H83.1c-3,0-5.5,2.4-5.5,5.5c0,3,2.4,5.5,5.5,5.5h0
		l6.1,0c0.2,0,0.4,0.1,0.4,0.3c0,0.2-0.2,0.3-0.4,0.3h-9c-0.8,0-1.5,0.2-1.9,0.6c-0.4,0.4-0.7,1.1-0.7,1.8c0,1.4,1.2,2.5,2.7,2.5H90
		c2.2,0,4-1.1,4.8-2.7v0l0,0.1c0.1,1.5,1.2,2.6,2.6,2.6h5.9c1.2,0,2.2-0.8,2.5-1.9c0.3,1.1,1.3,1.9,2.5,1.9c1.4,0,2.6-1.1,2.8-2.4
		l5.2,0l0,0c0,0.6,0.2,1.2,0.6,1.6c0.5,0.5,1.1,0.8,1.9,0.8h10.7c1.5,0,2.6-1.2,2.6-2.6C132.2,100.1,131.1,98.9,129.7,98.9
		 M114.4,97.9l-1.8,0l0.8-1.8L114.4,97.9z M94.8,96.2c-0.8-1.7-2.6-2.7-4.7-2.7h-6.8c-0.2,0-0.4-0.2-0.4-0.3c0-0.2,0.1-0.3,0.3-0.3
		l11.5,0L94.8,96.2z"/>
	<path class="st2" d="M130.5,89.3h0.3l0.4,0.7h0.3l-0.5-0.8c0.3,0,0.5-0.2,0.5-0.5c0-0.4-0.2-0.5-0.6-0.5h-0.7v1.7h0.3V89.3z
		 M130.5,89.1v-0.5h0.3c0.2,0,0.4,0,0.4,0.2c0,0.3-0.2,0.3-0.4,0.3H130.5z M132.3,89.2c0-0.9-0.7-1.6-1.5-1.6
		c-0.8,0-1.5,0.6-1.5,1.6c0,0.9,0.6,1.6,1.5,1.6C131.6,90.8,132.3,90.1,132.3,89.2 M132,89.2c0,0.8-0.5,1.3-1.2,1.3
		c-0.7,0-1.2-0.6-1.2-1.3c0-0.8,0.5-1.3,1.2-1.3C131.5,87.9,132,88.4,132,89.2"/>
	<path class="st1" d="M49.6,67H74c0,0,0.5,0,0.7,0.2c0.2,0.1,0.4,0.4,0.4,0.4l3.2,5.4c0,0,0.3,0.4,0.5,0.5c0.2,0.1,0.6,0.1,0.6,0.1
		h37.9c0,0,1.6,0,2.4,0.5c0.8,0.4,1.7,1.6,1.7,1.6l2.4,3.9c0,0,0.4,1,0,1.6c-0.6,0.8-1.2,0.7-1.2,0.7H82.4c0,0-0.6,0-0.9-0.2
		c-0.3-0.2-0.7-0.7-0.7-0.7l-4-6.6c0,0-0.2-0.4-0.5-0.6c-0.3-0.2-0.9-0.1-0.9-0.1H46.3c0,0-0.8,0.1-1-0.3c-0.3-0.4,0.1-0.9,0.1-0.9
		l2.9-4.6c0,0,0.3-0.5,0.5-0.6C49.1,67,49.6,67,49.6,67"/>
	<path class="st1" d="M65.2,42.2l8.7,0c0,0,0.5,0,0.7,0.2c0.2,0.1,0.4,0.4,0.4,0.4l3.2,5.4c0,0,0.3,0.4,0.5,0.5
		c0.2,0.1,0.6,0.1,0.6,0.1h22c0,0,1.6,0,2.4,0.5c0.8,0.4,1.7,1.6,1.7,1.6l2,3.3c0,0,0.7,1.2,0.1,2.2c-0.5,0.8-1.8,0.8-1.8,0.8H82.3
		c0,0-0.6,0-0.9-0.2c-0.3-0.2-0.7-0.7-0.7-0.7l-4-6.6c0,0-0.2-0.4-0.5-0.6c-0.3-0.2-0.9-0.1-0.9-0.1H61.9c0,0-0.8,0.1-1-0.3
		c-0.3-0.4,0.1-0.9,0.1-0.9l2.9-4.6c0,0,0.3-0.5,0.5-0.6C64.7,42.2,65.2,42.2,65.2,42.2"/>
	<path class="st0" d="M81.9,16.8c1.8,0,3,2.1,3,2.1l14.4,22.3c0,0,0.8,1.2,0.2,2.3c-0.5,1-1.9,1-1.9,1H82c0,0-0.6,0-0.8-0.2
		c-0.3-0.2-0.6-0.6-0.6-0.6l-4-6.5c0,0-0.4-0.4-0.7-0.6c-0.4-0.2-1-0.2-1-0.2h-4.7c0,0-1.1,0.1-1.3-0.5c-0.3-0.7,0.3-1.4,0.3-1.4
		l9.4-15.3C78.7,19.1,79.8,16.8,81.9,16.8"/>
	<path class="st1" d="M57.4,54.6H74c0,0,0.5,0,0.7,0.2c0.2,0.1,0.4,0.4,0.4,0.4l3.2,5.4c0,0,0.3,0.4,0.5,0.5
		c0.2,0.1,0.6,0.1,0.6,0.1h29.8c0,0,1.6,0,2.4,0.5c0.8,0.4,1.7,1.6,1.7,1.6l2,3.3c0,0,0.7,1.2,0.1,2.2c-0.5,0.8-1.8,0.8-1.8,0.8
		H82.4c0,0-0.6,0-0.9-0.2c-0.3-0.2-0.7-0.7-0.7-0.7l-4-6.6c0,0-0.2-0.4-0.5-0.6c-0.3-0.2-0.9-0.1-0.9-0.1H54.1c0,0-0.8,0.1-1-0.3
		c-0.3-0.4,0.1-0.9,0.1-0.9l2.9-4.6c0,0,0.3-0.5,0.5-0.6C57,54.6,57.4,54.6,57.4,54.6"/>
	<polygon class="st0" points="16.6,118.5 20.4,118.5 20.4,119.1 17.4,119.1 17.4,120.9 20.2,120.9 20.2,121.5 17.4,121.5 
		17.4,123.4 20.5,123.4 20.5,124 16.6,124 	"/>
	<polygon class="st0" points="21.9,118.5 22.7,118.5 25.6,123 25.6,123 25.6,118.5 26.3,118.5 26.3,124 25.5,124 22.6,119.6 
		22.6,119.6 22.6,124 21.9,124 	"/>
	<polygon class="st0" points="30.2,124 29.4,124 27.5,118.5 28.3,118.5 29.8,123.3 29.8,123.3 31.4,118.5 32.2,118.5 	"/>
	<rect x="33.4" y="118.5" class="st0" width="0.7" height="5.5"/>
	<path class="st0" d="M35.9,118.5h2.6c1,0,1.7,0.6,1.7,1.4c0,0.7-0.3,1.2-1,1.4v0c0.6,0.1,0.8,0.6,0.8,1.1c0,0.5,0,1.1,0.3,1.5h-0.8
		c-0.2-0.2-0.1-0.8-0.2-1.4c-0.1-0.5-0.2-1-0.9-1h-1.8v2.4h-0.7V118.5z M38.2,121.1c0.7,0,1.3-0.2,1.3-1c0-0.5-0.3-0.9-1-0.9h-1.8
		v1.9H38.2z"/>
	<path class="st0" d="M44.1,118.4c1.7,0,2.6,1.4,2.6,2.9s-0.9,2.9-2.6,2.9c-1.7,0-2.6-1.4-2.6-2.9S42.4,118.4,44.1,118.4
		 M44.1,123.5c1.3,0,1.9-1.2,1.9-2.3c0-1.1-0.6-2.3-1.9-2.3c-1.3,0-1.9,1.2-1.9,2.3C42.2,122.4,42.8,123.5,44.1,123.5"/>
	<polygon class="st0" points="48.2,118.5 49,118.5 51.9,123 51.9,123 51.9,118.5 52.6,118.5 52.6,124 51.8,124 48.9,119.6 
		48.9,119.6 48.9,124 48.2,124 	"/>
	<polygon class="st0" points="54.4,118.5 55.4,118.5 57.1,123.1 58.9,118.5 59.9,118.5 59.9,124 59.2,124 59.2,119.4 59.2,119.4 
		57.4,124 56.8,124 55.1,119.4 55.1,119.4 55.1,124 54.4,124 	"/>
	<polygon class="st0" points="61.7,118.5 65.5,118.5 65.5,119.1 62.4,119.1 62.4,120.9 65.3,120.9 65.3,121.5 62.4,121.5 
		62.4,123.4 65.5,123.4 65.5,124 61.7,124 	"/>
	<polygon class="st0" points="67,118.5 67.7,118.5 70.6,123 70.6,123 70.6,118.5 71.3,118.5 71.3,124 70.5,124 67.7,119.6 
		67.6,119.6 67.6,124 67,124 	"/>
	<polygon class="st0" points="74.4,119.1 72.5,119.1 72.5,118.5 76.9,118.5 76.9,119.1 75.1,119.1 75.1,124 74.4,124 	"/>
	<path class="st0" d="M79,118.5h0.8L82,124h-0.8l-0.6-1.7h-2.3l-0.6,1.7h-0.8L79,118.5z M80.3,121.7l-0.9-2.6h0l-0.9,2.6H80.3z"/>
	<polygon class="st0" points="83.1,118.5 83.8,118.5 83.8,123.4 86.7,123.4 86.7,124 83.1,124 	"/>
	<polygon class="st0" points="91.9,119.1 90.1,119.1 90.1,118.5 94.5,118.5 94.5,119.1 92.7,119.1 92.7,124 91.9,124 	"/>
	<polygon class="st0" points="95.7,118.5 99.5,118.5 99.5,119.1 96.4,119.1 96.4,120.9 99.3,120.9 99.3,121.5 96.4,121.5 
		96.4,123.4 99.5,123.4 99.5,124 95.7,124 	"/>
	<path class="st0" d="M103.3,118.4c1.1,0,2.1,0.6,2.3,1.8h-0.7c-0.2-0.8-0.8-1.2-1.5-1.2c-1.3,0-1.9,1.1-1.9,2.2
		c0,1.3,0.6,2.3,1.9,2.3c1,0,1.5-0.7,1.6-1.6h0.7c-0.1,1.4-1,2.2-2.4,2.2c-1.7,0-2.5-1.3-2.5-2.9
		C100.7,119.7,101.6,118.4,103.3,118.4"/>
	<polygon class="st0" points="107.1,118.5 107.9,118.5 107.9,120.9 110.7,120.9 110.7,118.5 111.5,118.5 111.5,124 110.7,124 
		110.7,121.5 107.9,121.5 107.9,124 107.1,124 	"/>
	<polygon class="st0" points="113.3,118.5 114,118.5 116.9,123 116.9,123 116.9,118.5 117.6,118.5 117.6,124 116.8,124 114,119.6 
		113.9,119.6 113.9,124 113.3,124 	"/>
	<path class="st0" d="M121.7,118.4c1.8,0,2.6,1.4,2.6,2.9s-0.9,2.9-2.6,2.9c-1.7,0-2.6-1.4-2.6-2.9S120,118.4,121.7,118.4
		 M121.7,123.5c1.3,0,1.9-1.2,1.9-2.3c0-1.1-0.6-2.3-1.9-2.3c-1.3,0-1.9,1.2-1.9,2.3C119.8,122.4,120.4,123.5,121.7,123.5"/>
	<polygon class="st0" points="125.8,118.5 126.6,118.5 126.6,123.4 129.5,123.4 129.5,124 125.8,124 	"/>
	<path class="st0" d="M132.8,118.4c1.8,0,2.6,1.4,2.6,2.9s-0.9,2.9-2.6,2.9c-1.7,0-2.6-1.4-2.6-2.9S131,118.4,132.8,118.4
		 M132.8,123.5c1.3,0,1.9-1.2,1.9-2.3c0-1.1-0.6-2.3-1.9-2.3c-1.3,0-1.9,1.2-1.9,2.3C130.9,122.4,131.4,123.5,132.8,123.5"/>
	<path class="st0" d="M139.2,118.4c1.2,0,2.2,0.5,2.4,1.8h-0.7c-0.1-0.8-0.8-1.2-1.6-1.2c-1.3,0-1.9,1.2-1.9,2.3
		c0,1.1,0.7,2.2,1.9,2.2c1.1,0,1.8-0.8,1.8-1.8h-1.8v-0.6h2.4v2.9h-0.5l-0.2-0.7c-0.4,0.6-1.1,0.8-1.8,0.8c-1.6,0-2.6-1.3-2.6-2.8
		C136.6,119.8,137.5,118.4,139.2,118.4"/>
	<polygon class="st0" points="145.2,121.8 145.2,124 144.5,124 144.5,121.8 142.3,118.5 143.2,118.5 144.9,121.1 146.5,118.5 
		147.3,118.5 	"/>
</g>
</svg>
