<?xml version="1.0" encoding="utf-8"?>
<!-- Generator: Adobe Illustrator 25.2.2, SVG Export Plug-In . SVG Version: 6.00 Build 0)  -->
<!DOCTYPE svg PUBLIC "-//W3C//DTD SVG 1.1//EN" "http://www.w3.org/Graphics/SVG/1.1/DTD/svg11.dtd" [
	<!ENTITY ns_extend "http://ns.adobe.com/Extensibility/1.0/">
	<!ENTITY ns_ai "http://ns.adobe.com/AdobeIllustrator/10.0/">
	<!ENTITY ns_graphs "http://ns.adobe.com/Graphs/1.0/">
	<!ENTITY ns_vars "http://ns.adobe.com/Variables/1.0/">
	<!ENTITY ns_imrep "http://ns.adobe.com/ImageReplacement/1.0/">
	<!ENTITY ns_sfw "http://ns.adobe.com/SaveForWeb/1.0/">
	<!ENTITY ns_custom "http://ns.adobe.com/GenericCustomNamespace/1.0/">
	<!ENTITY ns_adobe_xpath "http://ns.adobe.com/XPath/1.0/">
]>
<svg version="1.1" xmlns:x="&ns_extend;" xmlns:i="&ns_ai;" xmlns:graph="&ns_graphs;"
	 xmlns="http://www.w3.org/2000/svg" xmlns:xlink="http://www.w3.org/1999/xlink" x="0px" y="0px" viewBox="0 0 291.4 119"
	 style="enable-background:new 0 0 291.4 119;" xml:space="preserve">
<style type="text/css">
	.st0{display:none;}
	.st1{display:inline;fill:#FFFFFF;}
	.st2{display:inline;fill:none;stroke:#EA118C;stroke-width:0.588;}
	.st3{display:inline;fill:none;stroke:#EA118C;stroke-width:0.588;stroke-dasharray:3.786,3.786;}
	.st4{display:inline;fill:none;stroke:#EA118C;stroke-width:0.588;stroke-dasharray:3.783,3.783;}
	.st5{display:inline;}
	.st6{fill:#2BACE2;}
	.st7{display:inline;fill:none;stroke:#2BACE2;stroke-width:0.588;stroke-dasharray:3.794,3.794;}
	.st8{display:inline;fill:none;stroke:#EA118C;stroke-width:0.588;stroke-dasharray:3.831,3.831;}
	.st9{display:inline;fill:none;stroke:#EA118C;stroke-width:0.588;stroke-dasharray:3.833,3.833;}
	.st10{fill-rule:evenodd;clip-rule:evenodd;fill:#FFFFFF;}
	.st11{fill:#FFFFFF;}
</style>
<metadata>
	<sfw  xmlns="&ns_sfw;">
		<slices></slices>
		<sliceSourceBounds  bottomLeftOrigin="true" height="119.6" width="312.3" x="323.7" y="-334.7"></sliceSourceBounds>
	</sfw>
</metadata>
<g id="guides" class="st0">
	<rect class="st1" width="291.4" height="119"/>
	<rect class="st2" width="291.4" height="119"/>
	<path class="st2" d="M0,0"/>
	<line class="st3" x1="0" y1="97.6" x2="291.6" y2="97.6"/>
	<line class="st4" x1="0" y1="21.5" x2="291.3" y2="21.5"/>
	
		<text transform="matrix(1 0 0 1 -14.7979 46.9131)" style="display:inline;fill:#2BACE2; font-family:'Univers-Bold'; font-size:10.5px;">X</text>
	<g class="st5">
		<path class="st6" d="M11.2,14.3l-0.9-1.6c-0.4-0.6-0.6-1-0.8-1.4h0c-0.2,0.4-0.4,0.8-0.8,1.4l-0.9,1.6h-1L9,10.8L6.9,7.3H8
			l0.9,1.7c0.3,0.5,0.5,0.8,0.7,1.2h0c0.2-0.4,0.4-0.7,0.6-1.2l1-1.7h1l-2.2,3.4l2.2,3.6H11.2z"/>
	</g>
	<g class="st5">
		<g>
			<path class="st6" d="M281.2,111.7l-0.9-1.6c-0.4-0.6-0.6-1-0.8-1.4h0c-0.2,0.4-0.4,0.8-0.8,1.4l-0.8,1.6h-1l2.2-3.6l-2.1-3.5h1.1
				l0.9,1.7c0.3,0.5,0.5,0.8,0.7,1.2h0c0.2-0.4,0.4-0.7,0.6-1.2l1-1.7h1l-2.2,3.4l2.2,3.6H281.2z"/>
		</g>
		<g>
			<path class="st6" d="M11.2,111.7l-0.9-1.6c-0.4-0.6-0.6-1-0.8-1.4h0c-0.2,0.4-0.4,0.8-0.8,1.4l-0.9,1.6h-1l2.2-3.6l-2.1-3.5H8
				l0.9,1.7c0.3,0.5,0.5,0.8,0.7,1.2h0c0.2-0.4,0.4-0.7,0.6-1.2l1-1.7h1l-2.2,3.4l2.2,3.6H11.2z"/>
		</g>
	</g>
	<line class="st7" x1="127.3" y1="54.7" x2="-20.7" y2="54.7"/>
	<line class="st7" x1="127.3" y1="32.4" x2="-20.7" y2="32.4"/>
	<line class="st8" x1="21.4" y1="0" x2="21.4" y2="118.8"/>
	<line class="st9" x1="269.9" y1="0.1" x2="269.9" y2="118.9"/>
	<g class="st5">
		<path class="st6" d="M281.2,14.3l-0.9-1.6c-0.4-0.6-0.6-1-0.8-1.4h0c-0.2,0.4-0.4,0.8-0.8,1.4l-0.8,1.6h-1l2.2-3.6l-2.1-3.5h1.1
			l0.9,1.7c0.3,0.5,0.5,0.8,0.7,1.2h0c0.2-0.4,0.4-0.7,0.6-1.2l1-1.7h1l-2.2,3.4l2.2,3.6H281.2z"/>
	</g>
</g>
<g id="Layer_1">
	<path class="st10" d="M39.6,84.2C39.6,84.3,39.6,84.3,39.6,84.2c2.6-10.2-4.4-16.4-4.4-16.4c-1.3,4.7-0.4,8.5,0.9,11.3
		c-2.2-2.1-5.5-4.2-10.2-4.4C25.9,74.8,29.3,83.6,39.6,84.2C39.6,84.3,39.6,84.3,39.6,84.2 M52.5,90.3
		C52.5,90.3,52.5,90.3,52.5,90.3c-1.7-10.7-10.9-13.7-10.9-13.7c0.7,4.9,3.1,8.2,5.5,10.4c-2.9-1.1-6.9-1.7-11.4,0
		C35.7,87.1,42.5,93.9,52.5,90.3C52.5,90.4,52.5,90.3,52.5,90.3z M30.4,73.7C30.4,73.7,30.4,73.7,30.4,73.7
		C30.4,73.7,30.4,73.7,30.4,73.7C36.9,65.4,33,57,33,57c-3.1,3.7-3.9,7.6-3.9,10.7c-1.1-2.8-3.3-6-7.5-8.2
		C21.7,59.5,21.2,68.9,30.4,73.7z M26.3,60.2C26.3,60.2,26.3,60.2,26.3,60.2c9.3-5,9.1-14.3,9.1-14.3c-4.3,2.2-6.6,5.4-7.8,8.3
		c0.1-3-0.6-6.9-3.6-10.5C24,43.7,19.9,52.1,26.3,60.2C26.3,60.2,26.3,60.2,26.3,60.2z M28.2,46.1C28.2,46.1,28.2,46.1,28.2,46.1
		c10.2-0.8,13.7-9.2,13.7-9.2c-4.7,0.3-8,2.3-10.1,4.3c1.3-2.7,2.1-6.3,0.8-10.7C32.6,30.5,25.6,36.4,28.2,46.1
		C28.2,46.1,28.2,46.1,28.2,46.1z M35.2,34c9.5,3.4,15.9-2.7,15.9-2.7c-4.3-1.6-8-1.2-10.8-0.2c2.2-1.9,4.4-4.8,5.1-9.2
		C45.4,21.9,36.8,24.3,35.2,34C35.2,34,35.2,34,35.2,34C35.2,34,35.2,34,35.2,34z M60.1,21.7c-9.6-1.3-14.5,6.2-14.5,6.2
		C55.4,28.9,60.1,21.7,60.1,21.7z M89.9,67.8c0,0-7,6.1-4.4,16.4c0,0,0,0,0,0c0,0,0,0,0,0c10.3-0.7,13.8-9.4,13.8-9.4
		c-4.7,0.2-8,2.2-10.2,4.4C90.4,76.4,91.2,72.5,89.9,67.8z M78.1,87c2.4-2.1,4.8-5.4,5.5-10.4c0,0-9.1,2.9-10.9,13.7c0,0,0,0,0,0
		c0,0,0,0,0,0C82.7,93.9,89.5,87,89.5,87C85,85.3,81,85.9,78.1,87z M96,67.6c0-3.1-0.8-7-3.9-10.7c0,0-3.9,8.5,2.7,16.8c0,0,0,0,0,0
		c0,0,0,0,0,0c9.1-4.9,8.7-14.2,8.7-14.2C99.3,61.6,97.1,64.8,96,67.6z M97.5,54.1c-1.2-2.8-3.5-6.1-7.8-8.3c0,0-0.2,9.3,9.2,14.3
		c0,0,0,0,0,0c0,0,0,0,0,0c6.4-8.1,2.3-16.5,2.3-16.5C98.1,47.3,97.4,51.1,97.5,54.1z M83.3,36.9c0,0,3.5,8.4,13.7,9.2c0,0,0,0,0,0
		c0,0,0,0,0,0c2.6-9.7-4.4-15.6-4.4-15.6c-1.3,4.4-0.4,8.1,0.8,10.7C91.2,39.2,88,37.2,83.3,36.9z M84.8,31.1
		c-2.8-1-6.5-1.4-10.8,0.2c0,0,6.4,6.1,15.9,2.7c0,0,0,0,0,0c0,0,0,0,0,0c-1.6-9.7-10.2-12.2-10.2-12.2
		C80.4,26.3,82.6,29.2,84.8,31.1z M79.4,27.8c0,0-4.9-7.4-14.5-6.1C64.9,21.7,69.6,28.9,79.4,27.8z M65.7,89.8
		c-5.6,0-12.5,5.4-17.7,3.6c0,0,1.3,2.4,4,2.6c5.5,0.5,9.8-3.1,15.4-2.7c5.5,0.4,8.2,4.4,8.3,4.3C76.3,93.9,72.1,89.8,65.7,89.8z"/>
	<g>
		<rect x="118.1" y="65.2" class="st11" width="3.7" height="21.7"/>
		<polygon class="st11" points="177.8,86.9 191.4,86.9 191.4,84.5 181.6,84.5 181.6,76.8 191.2,76.8 191.2,74.4 181.6,74.4 
			181.6,67.5 191.4,67.5 191.4,65.2 177.8,65.2 		"/>
		<polygon class="st11" points="268.5,65.2 255,65.2 255,86.9 268.5,86.9 268.5,84.5 258.7,84.5 258.7,76.8 268.4,76.8 268.4,74.4 
			258.7,74.4 258.7,67.5 268.5,67.5 		"/>
		<path class="st11" d="M205.6,64.7c-6.2,0-11.2,5.1-11.2,11.4c0,6.3,5,11.4,11.2,11.4c6.2,0,11.2-5.1,11.2-11.4
			C216.8,69.8,211.8,64.7,205.6,64.7z M205.7,85.5c-3.8,0-6.9-4.2-6.9-9.4c0-5.2,3.1-9.4,6.9-9.4c3.8,0,6.9,4.2,6.9,9.4
			C212.6,81.3,209.5,85.5,205.7,85.5z"/>
		<polygon class="st11" points="142.2,65.2 142.2,80.7 128.5,65.2 125.9,65.2 125.9,86.9 128.2,86.9 128.2,71.2 142.2,86.9 
			144.6,86.9 144.6,65.2 		"/>
		<polygon class="st11" points="242.3,65.2 238.5,65.2 238.5,86.9 252.1,86.9 252.1,84.5 242.3,84.5 		"/>
		<path class="st11" d="M167.3,65.2c-0.8,0-8.2,0-8.2,0l0,21.7h3.7l0-9.4h3.1c6.6,0,8.8-3,8.8-6.8C174.8,69.2,173.8,65.2,167.3,65.2
			z M166.1,75.9c-0.2,0-3.3,0-3.3,0s0-8,0-8.9c0.9,0,2.3,0,3.4,0c3,0,4.3,1.4,4.3,4.3C170.4,73.8,169.2,75.9,166.1,75.9z"/>
		<path class="st11" d="M228.1,65.1c-0.8,0-8.2,0-8.2,0l0,21.7h3.7l0-9.4h3.1c6.6,0,8.8-3,8.8-6.8C235.6,69.2,234.7,65.1,228.1,65.1
			z M226.9,75.9c-0.2,0-3.3,0-3.3,0s0-8,0-8.9c0.9,0,2.3,0,3.4,0c3,0,4.3,1.4,4.3,4.3C231.3,73.8,230,75.9,226.9,75.9z"/>
		<rect x="118.1" y="32.7" class="st11" width="3.7" height="21.7"/>
		<path class="st11" d="M225.1,32.3c-6.2,0-11.2,5.1-11.2,11.4c0,6.3,5,11.4,11.2,11.4c6.2,0,11.2-5.1,11.2-11.4
			C236.3,37.4,231.3,32.3,225.1,32.3z M225.2,53.1c-3.8,0-6.9-4.2-6.9-9.4c0-5.2,3.1-9.4,6.9-9.4c3.8,0,6.9,4.2,6.9,9.4
			C232.1,48.9,229,53.1,225.2,53.1z"/>
		<polygon class="st11" points="142.2,48.3 128.5,32.7 125.9,32.7 125.9,54.4 128.2,54.4 128.2,38.8 142.2,54.4 144.6,54.4 
			144.6,32.7 142.2,32.7 		"/>
		<polygon class="st11" points="163.7,32.7 157.9,49.3 151.8,32.7 147.1,32.7 155.4,54.4 158.2,54.4 166.5,32.7 		"/>
		<polygon class="st11" points="181.8,52.1 172.4,52.1 172.4,44.4 181.7,44.3 181.7,41.9 172.4,41.9 172.5,35.1 181.8,35.1 
			181.8,32.7 168.8,32.7 168.8,54.4 181.8,54.4 		"/>
		<polygon class="st11" points="205.2,35.1 205.2,54.4 209,54.4 209,35.1 214.8,35.1 214.8,32.7 199.4,32.7 199.4,35.1 		"/>
		<path class="st11" d="M253.6,38.7c0-4.2-3-6-7.6-6c-0.8,0-7.2,0-7.2,0v21.7h3.8l0-9.4h1.4l6.2,9.4h4.7l-6.5-9.7
			C248.4,44.7,253.6,43.8,253.6,38.7z M242.6,43.5v-8.9c0,0,2.7,0,2.7,0c2.9,0,4,2.1,4,4.3c0,2.5-1.3,4.6-4.2,4.6
			C245.1,43.5,242.6,43.5,242.6,43.5z"/>
		<path class="st11" d="M190.3,52.9c-3.7,0-4.3-2.9-4.3-3.4h-0.6l-0.9,4c0,0,1.5,1.3,5.1,1.3c7.5,0,9.6-5.5,7.8-9.1
			c-1.2-2.4-5.2-4.2-6.7-5c-4.2-2.2-2.5-6.5,1-6.5c1.9,0,3.1,0.9,3.8,2.7h0.5l1-3.1c0,0-1.9-1.6-5.2-1.6c-7.8,0-9.1,8.3-4.5,11.3
			c1.5,1,6.2,3,6.7,5C194.4,50.7,193.1,52.9,190.3,52.9z"/>
	</g>
</g>
</svg>
