<?xml version="1.0" encoding="utf-8"?>
<!-- Generator: Adobe Illustrator 25.2.2, SVG Export Plug-In . SVG Version: 6.00 Build 0)  -->
<!DOCTYPE svg PUBLIC "-//W3C//DTD SVG 1.1//EN" "http://www.w3.org/Graphics/SVG/1.1/DTD/svg11.dtd" [
	<!ENTITY ns_extend "http://ns.adobe.com/Extensibility/1.0/">
	<!ENTITY ns_ai "http://ns.adobe.com/AdobeIllustrator/10.0/">
	<!ENTITY ns_graphs "http://ns.adobe.com/Graphs/1.0/">
	<!ENTITY ns_vars "http://ns.adobe.com/Variables/1.0/">
	<!ENTITY ns_imrep "http://ns.adobe.com/ImageReplacement/1.0/">
	<!ENTITY ns_sfw "http://ns.adobe.com/SaveForWeb/1.0/">
	<!ENTITY ns_custom "http://ns.adobe.com/GenericCustomNamespace/1.0/">
	<!ENTITY ns_adobe_xpath "http://ns.adobe.com/XPath/1.0/">
]>
<svg version="1.1" xmlns:x="&ns_extend;" xmlns:i="&ns_ai;" xmlns:graph="&ns_graphs;"
	 xmlns="http://www.w3.org/2000/svg" xmlns:xlink="http://www.w3.org/1999/xlink" x="0px" y="0px" viewBox="0 0 291.4 119"
	 style="enable-background:new 0 0 291.4 119;" xml:space="preserve">
<style type="text/css">
	.st0{display:none;}
	.st1{display:inline;fill:#FFFFFF;}
	.st2{display:inline;fill:none;stroke:#EA118C;stroke-width:0.588;}
	.st3{display:inline;fill:none;stroke:#EA118C;stroke-width:0.588;stroke-dasharray:3.786,3.786;}
	.st4{display:inline;fill:none;stroke:#EA118C;stroke-width:0.588;stroke-dasharray:3.783,3.783;}
	.st5{display:inline;}
	.st6{fill:#2BACE2;}
	.st7{display:inline;fill:none;stroke:#2BACE2;stroke-width:0.588;stroke-dasharray:3.794,3.794;}
	.st8{display:inline;fill:none;stroke:#EA118C;stroke-width:0.588;stroke-dasharray:3.831,3.831;}
	.st9{display:inline;fill:none;stroke:#EA118C;stroke-width:0.588;stroke-dasharray:3.833,3.833;}
	.st10{fill:#FFFFFF;}
	.st11{fill-rule:evenodd;clip-rule:evenodd;fill:#FFFFFF;}
</style>
<metadata>
	<sfw  xmlns="&ns_sfw;">
		<slices></slices>
		<sliceSourceBounds  bottomLeftOrigin="true" height="119.6" width="312.3" x="323.7" y="-334.7"></sliceSourceBounds>
	</sfw>
</metadata>
<g id="guides" class="st0">
	<rect class="st1" width="291.4" height="119"/>
	<rect class="st2" width="291.4" height="119"/>
	<path class="st2" d="M0,0"/>
	<line class="st3" x1="0" y1="97.6" x2="291.6" y2="97.6"/>
	<line class="st4" x1="0" y1="21.5" x2="291.3" y2="21.5"/>
	
		<text transform="matrix(1 0 0 1 -14.7979 46.9131)" style="display:inline;fill:#2BACE2; font-family:'Univers-Bold'; font-size:10.5px;">X</text>
	<g class="st5">
		<path class="st6" d="M11.2,14.3l-0.9-1.6c-0.4-0.6-0.6-1-0.8-1.4h0c-0.2,0.4-0.4,0.8-0.8,1.4l-0.9,1.6h-1L9,10.8L6.9,7.3H8
			l0.9,1.7c0.3,0.5,0.5,0.8,0.7,1.2h0c0.2-0.4,0.4-0.7,0.6-1.2l1-1.7h1l-2.2,3.4l2.2,3.6H11.2z"/>
	</g>
	<g class="st5">
		<g>
			<path class="st6" d="M281.2,111.7l-0.9-1.6c-0.4-0.6-0.6-1-0.8-1.4h0c-0.2,0.4-0.4,0.8-0.8,1.4l-0.8,1.6h-1l2.2-3.6l-2.1-3.5h1.1
				l0.9,1.7c0.3,0.5,0.5,0.8,0.7,1.2h0c0.2-0.4,0.4-0.7,0.6-1.2l1-1.7h1l-2.2,3.4l2.2,3.6H281.2z"/>
		</g>
		<g>
			<path class="st6" d="M11.2,111.7l-0.9-1.6c-0.4-0.6-0.6-1-0.8-1.4h0c-0.2,0.4-0.4,0.8-0.8,1.4l-0.9,1.6h-1l2.2-3.6l-2.1-3.5H8
				l0.9,1.7c0.3,0.5,0.5,0.8,0.7,1.2h0c0.2-0.4,0.4-0.7,0.6-1.2l1-1.7h1l-2.2,3.4l2.2,3.6H11.2z"/>
		</g>
	</g>
	<line class="st7" x1="127.3" y1="54.7" x2="-20.7" y2="54.7"/>
	<line class="st7" x1="127.3" y1="32.4" x2="-20.7" y2="32.4"/>
	<line class="st8" x1="21.4" y1="0" x2="21.4" y2="118.8"/>
	<line class="st9" x1="269.9" y1="0.1" x2="269.9" y2="118.9"/>
	<g class="st5">
		<path class="st6" d="M281.2,14.3l-0.9-1.6c-0.4-0.6-0.6-1-0.8-1.4h0c-0.2,0.4-0.4,0.8-0.8,1.4l-0.8,1.6h-1l2.2-3.6l-2.1-3.5h1.1
			l0.9,1.7c0.3,0.5,0.5,0.8,0.7,1.2h0c0.2-0.4,0.4-0.7,0.6-1.2l1-1.7h1l-2.2,3.4l2.2,3.6H281.2z"/>
	</g>
</g>
<g id="Layer_1">
	<g>
		<path class="st10" d="M178.1,49.8c0,0-4.7-10.1-22.7-10.3c0,0,4.4,15.1,18.2,13.5c0,0,2.6-2.7-10.1-7.9c0,0,17.4,1.3,14.2,13.3
			c-0.5,1.9-2.9,5.7-2.9,5.7s1.2-0.1,1.9-0.1c0.8,0,1.7,0,1.7,0s2.8-3.9,2.5-7.2c-0.3-3.3-1.4-8.3,1-11.4c0,0,1.2-3.3,11.5-7.6
			c0,0-11.4,7.2-9.9,11.6c0,0,12.9-0.9,18.5-18.1C202,31.2,177,31,178.1,49.8"/>
		<path class="st10" d="M154,76.2c0-7.9-7.6-14.3-17-14.3h-22.3c-4.7,0-8.4,3.2-8.4,7.2c0,3.9,3.8,7.1,8.7,7.1H136
			c3.1,0,3.1,2.7,0,2.7h-21.1c-4.8,0-8.7,3.1-8.7,7v14.6c0,3.9,3.9,6.9,8.7,6.9c4.9,0,8.8-3.1,8.8-6.9V90l14.4,14.6
			c3.1,3.1,8.5,3.6,12.2,1.1c3.7-2.5,4.3-7,1.4-10l-7-7.1C150.2,86.4,154,81.7,154,76.2"/>
		<path class="st10" d="M102.3,44.3h-9.1v-3h7.4c3.1,0,5.6-2.5,5.6-5.6s-2.5-5.6-5.7-5.6h-7.3v-2.7l9.1,0c4,0,7.3-3.2,7.3-7.1
			c0-4-3.2-7.2-7.1-7.2H85.9c-4.1,0-7.4,3.3-7.4,7.3v31.1c0,4,3.3,7.3,7.4,7.3h16.6c3.9,0,7.1-3.2,7.1-7.2
			C109.6,47.5,106.3,44.3,102.3,44.3"/>
		<path class="st10" d="M97.6,93.2h-9.1v-3h7.4c3.1,0,5.6-2.5,5.6-5.6c0-3.1-2.5-5.6-5.7-5.6h-7.3v-2.7l9.1,0c4,0,7.3-3.2,7.3-7.1
			c0-4-3.2-7.2-7.1-7.2H81.1c-4.1,0-7.4,3.3-7.4,7.3v31.1c0,4,3.3,7.3,7.4,7.3h16.6c3.9,0,7.1-3.2,7.1-7.2
			C104.8,96.4,101.6,93.2,97.6,93.2"/>
		<path class="st10" d="M76.8,20.3c0-3.9-3.2-7-7.3-7c-4,0-7.2,3.1-7.2,7v22.1l-7-22.1c-0.8-2.6-2.4-4.6-4.7-6c-2.1-1.3-4.5-2-7.2-2
			c-3.3,0-6.1,0.9-8.5,2.7c-2.7,2.1-4.1,4.9-4.1,8.2v28.9c0,3.9,3.2,7,7.2,7c4.1,0,7.3-3.1,7.3-7V30.4l6.1,19.8c1,3.1,2.7,5.4,5.2,7
			c2.1,1.4,4.6,2.1,7.6,2.1c3.2,0,6-0.8,8.3-2.5c2.8-1.9,4.3-4.6,4.3-7.9L76.8,20.3z"/>
		<path class="st10" d="M151.7,13.4h-33.4c-3.9,0-7.1,3.2-7.1,7.2c0,4,3.3,7.1,7.3,7.1l9.1,0l-0.1,23.7c0,4.1,3.4,7.3,7.5,7.3
			c4.1,0,7.4-3.4,7.4-7.5l-0.1-23.5l9.1,0c4,0,7.3-3.2,7.3-7.1C158.8,16.6,155.6,13.4,151.7,13.4"/>
		<path class="st10" d="M65.1,93.5H46l17.1-6.9c3-1.2,5.3-3,6.9-5.5c1.5-2.3,2.3-4.7,2.3-7.3c0-3.4-1.2-6.2-3.5-8.5
			c-2.3-2.2-5.2-3.1-8.6-3.1l-23.8,0c-3.9,0-7.1,3.2-7.1,7.2c0,3.9,3.3,7.1,7.3,7.1l17.6,0l-15.5,6.2c-6.1,2.4-9.3,6.8-9.3,12.5
			c0,3.3,1.1,6.2,3.3,8.6c2.3,2.6,5.3,3.9,8.5,3.9h24.1c3.9,0,7.1-3.2,7.1-7.2C72.4,96.7,69.1,93.5,65.1,93.5"/>
		<path class="st11" d="M193.7,66.4c-8.1-6.5-19.9-6.5-28.4,0c-0.2,0.1-0.1,0.4,0,0.6l4.6,4.6c1,1,1.1,2.6,0.1,3.5
			c-1,1-2.6,0.9-3.6-0.1l-4.6-4.6c-0.1-0.2-0.4-0.2-0.5,0c-6.5,8.1-6.6,19.9,0,28.5c0.1,0.2,0.3,0.1,0.5,0l4.6-4.6l0.1-0.1
			c1-1,2.6-1,3.5,0c1,1,0.8,2.6-0.1,3.5l-4.6,4.6c-0.2,0.1-0.1,0.4,0,0.6c8.1,6.5,19.9,6.6,28.5,0c0,0,0.2-0.2-0.1-0.6l-4.6-4.6
			c-1-1-0.9-2.5,0.1-3.4c1-1,2.5-1,3.4,0l4.6,4.6c0.1,0.2,0.6,0.1,0.7,0c6.5-8.1,6.6-19.9,0-28.5c-0.1-0.2-0.4-0.1-0.7,0l-4.6,4.6
			c-1,1-2.5,1-3.4,0c-1-1-1-2.5-0.1-3.4l4.6-4.6C193.8,66.9,193.9,66.6,193.7,66.4C193.7,66.4,193.7,66.4,193.7,66.4 M173.8,90.3
			c-3.1-3.1-3.1-8.2,0-11.4s8.2-3.1,11.4,0s3.1,8.2,0,11.4C182,93.5,176.9,93.5,173.8,90.3"/>
	</g>
</g>
</svg>
